# Blender v2.79 (sub 0) OBJ File: ''
# www.blender.org
o Cube_Cube.001
v -1.000000 -0.307661 1.000000
v -1.000000 0.307661 1.000000
v -1.000000 -0.307661 -1.000000
v -1.000000 0.307661 -1.000000
v 1.000000 -0.307661 1.000000
v 1.000000 0.307661 1.000000
v 1.000000 -0.307661 -1.000000
v 1.000000 0.307661 -1.000000
v 0.500000 -0.307661 -1.467755
v 0.000000 -0.307661 -1.935511
v -0.500000 -0.307661 -1.467755
v -0.500000 0.307661 -1.467755
v 0.000000 0.307661 -1.935511
v 0.500000 0.307661 -1.467755
v -0.500000 -0.307661 1.000000
v 0.000000 -0.307661 1.000000
v 0.500000 -0.307661 1.000000
v 0.500000 0.307661 1.000000
v 0.000000 0.307661 1.000000
v -0.500000 0.307661 1.000000
v -0.500000 -0.307661 4.303572
v 0.000000 -0.307661 4.303572
v 0.500000 -0.307661 4.303572
v 0.500000 0.307661 4.303572
v 0.000000 0.307661 4.303572
v -0.500000 0.307661 4.303572
v 0.000000 -0.307661 -1.935511
v 0.000000 0.307661 -1.935511
vn -1.0000 0.0000 0.0000
vn 0.6832 0.0000 -0.7303
vn 1.0000 0.0000 0.0000
vn 0.0000 0.0000 1.0000
vn 0.0000 -1.0000 0.0000
vn 0.0000 1.0000 0.0000
vn -0.6832 0.0000 -0.7303
s off
f 2//1 3//1 1//1
f 14//2 7//2 9//2
f 8//3 5//3 7//3
f 20//4 1//4 15//4
f 7//5 17//5 9//5
f 4//6 20//6 12//6
f 8//6 18//6 6//6
f 14//6 19//6 18//6
f 12//6 19//6 13//6
f 3//5 15//5 1//5
f 11//5 16//5 15//5
f 9//5 16//5 10//5
f 6//4 17//4 5//4
f 17//5 22//5 16//5
f 19//6 24//6 18//6
f 4//7 11//7 3//7
f 12//7 10//7 11//7
f 13//2 9//2 10//2
f 24//4 22//4 23//4
f 25//4 21//4 22//4
f 20//6 25//6 19//6
f 15//1 26//1 20//1
f 18//3 23//3 17//3
f 16//5 21//5 15//5
f 13//4 27//4 28//4
f 2//1 4//1 3//1
f 14//2 8//2 7//2
f 8//3 6//3 5//3
f 20//4 2//4 1//4
f 7//5 5//5 17//5
f 4//6 2//6 20//6
f 8//6 14//6 18//6
f 14//6 13//6 19//6
f 12//6 20//6 19//6
f 3//5 11//5 15//5
f 11//5 10//5 16//5
f 9//5 17//5 16//5
f 6//4 18//4 17//4
f 17//5 23//5 22//5
f 19//6 25//6 24//6
f 4//7 12//7 11//7
f 12//7 13//7 10//7
f 13//2 14//2 9//2
f 24//4 25//4 22//4
f 25//4 26//4 21//4
f 20//6 26//6 25//6
f 15//1 21//1 26//1
f 18//3 24//3 23//3
f 16//5 22//5 21//5
f 13//4 10//4 27//4
